{"title":"Piranha 3D 2010 TS XVID Feel-Free","uid":5803220,"size":868539916,"categoryP":"video","categoryS":"movies","magnet":"?xt=urn:btih:485e38990b0a063744a39976e99f0519c070be07&amp;dn=Piranha+3D+2010+TS+XVID+Feel-Free&amp;tr=udp%3A%2F%2Ftracker.openbittorrent.com%3A80&amp;tr=udp%3A%2F%2Fopen.demonii.com%3A1337&amp;tr=udp%3A%2F%2Ftracker.coppersurfer.tk%3A6969&amp;tr=udp%3A%2F%2Fexodus.desync.com%3A6969","seeders":1,"leechers":0,"uploader":"hiest","files":-1,"time":1283302779,"description":"Genre:Action | Horror | Sci-Fi | Thriller\nLanguage:English\nIMDb:http://www.imdb.com/title/tt0464154/\nSource Video:CAMRip.PROPER\nSource Audio:Imagine\n\nGeneral\nComplete name :Piranha 3D 2010 TS XVID Feel-Free\nFormat : AVI\nFormat/Info : Audio Video Interleave\nFile size : 828 MiB\nDuration : 1h 22mn\nOverall bit rate : 1 405 Kbps\nWriting library : VirtualDub build 32817/release\nVideo #0\nMuxing mode : Packed bitstream\nCodec ID : XVID\nCodec ID/Hint : XviD\nDuration : 1h 22mn\nBit rate : 1 268 Kbps\nWidth : 688 pixels\nHeight : 288 pixels\nDisplay aspect ratio : 2.35:1\nFrame rate : 23.976 fps\nResolution : 24 bits\nColorimetry : 4:2:0\nScan type : Progressive\nBits/(Pixel*Frame) : 0.267\nStream size : 747 MiB (90%)\nWriting library : XviD 1.2.1 (UTC 2008-12-04)\nAudio #1\nID : 1\nFormat : MPEG Audio\nFormat version : Version 1\nFormat profile : Layer 3\nCodec ID : 55\nCodec ID/Hint : MP3\nDuration : 1h 22mn\nBit rate mode : Constant\nBit rate : 128 Kbps\nChannel(s) : 2 channels\nSampling rate : 44.1 KHz\nResolution : 16 bits\nStream size : 75.4 MiB (9%)\nAlignment : Split accross interleaves\nInterleave, duration : 42 ms (1.00 video frame)\nInterleave, preload duration : 500 ms\n\nPlot\nAfter a sudden underwater tremor sets free scores of the prehistoric man-eating fish, an unlikely group of strangers must band together to stop themselves from becoming fish food for the area's new razor-toothed residents\n\n\n\n\n\n\n================================== &lt;a href=&quot;\nhttp://thepiratebay.se/user/hiest&quot; rel=&quot;nofollow&quot; target=&quot;_NEW&quot;&gt;\nhttp://thepiratebay.se/user/hiest&lt;/a&gt;\n==================================\n\n\n\n\n\nScreenshots:\n &lt;a href=&quot;\nhttp://www.starshare.ro/bitbucket/4.jpg&quot; rel=&quot;nofollow&quot; target=&quot;_NEW&quot;&gt;\nhttp://www.starshare.ro/bitbucket/4.jpg&lt;/a&gt;\n &lt;a href=&quot;\nhttp://www.starshare.ro/bitbucket/2.jpg&quot; rel=&quot;nofollow&quot; target=&quot;_NEW&quot;&gt;\nhttp://www.starshare.ro/bitbucket/2.jpg&lt;/a&gt;\n &lt;a href=&quot;\nhttp://www.starshare.ro/bitbucket/3.jpg&quot; rel=&quot;nofollow&quot; target=&quot;_NEW&quot;&gt;\nhttp://www.starshare.ro/bitbucket/3.jpg&lt;/a&gt;\n &lt;a href=&quot;\nhttp://www.starshare.ro/bitbucket/10.jpg&quot; rel=&quot;nofollow&quot; target=&quot;_NEW&quot;&gt;\nhttp://www.starshare.ro/bitbucket/10.jpg&lt;/a&gt;\n &lt;a href=&quot;\nhttp://www.starshare.ro/bitbucket/6.jpg&quot; rel=&quot;nofollow&quot; target=&quot;_NEW&quot;&gt;\nhttp://www.starshare.ro/bitbucket/6.jpg&lt;/a&gt;\n &lt;a href=&quot;\nhttp://www.starshare.ro/bitbucket/5.jpg&quot; rel=&quot;nofollow&quot; target=&quot;_NEW&quot;&gt;\nhttp://www.starshare.ro/bitbucket/5.jpg&lt;/a&gt;\n &lt;a href=&quot;\nhttp://www.starshare.ro/bitbucket/7.jpg&quot; rel=&quot;nofollow&quot; target=&quot;_NEW&quot;&gt;\nhttp://www.starshare.ro/bitbucket/7.jpg&lt;/a&gt;","torrent":{"xt":"urn:btih:485e38990b0a063744a39976e99f0519c070be07","amp;dn":"Piranha+3D+2010+TS+XVID+Feel-Free","amp;tr":["udp%3A%2F%2Ftracker.openbittorrent.com%3A80","udp%3A%2F%2Fopen.demonii.com%3A1337","udp%3A%2F%2Ftracker.coppersurfer.tk%3A6969","udp%3A%2F%2Fexodus.desync.com%3A6969"],"infoHash":"485e38990b0a063744a39976e99f0519c070be07","infoHashBuffer":{"type":"Buffer","data":[72,94,56,153,11,10,6,55,68,163,153,118,233,159,5,25,192,112,190,7]},"announce":[],"urlList":[]}}